<svg aria-hidden="true" style="position: absolute; width: 0; height: 0; overflow: hidden;" version="1.1" xmlns="http://www.w3.org/2000/svg" xmlns:xlink="http://www.w3.org/1999/xlink">
<defs>
<symbol id="icon-logo" viewBox="0 0 174 32">
<path fill="#e04e4f" style="fill: var(--color1, #e04e4f)" d="M0 0v0 32h56.018v-32h-56.018zM46.316 11.35c-0.006 0.603-0.496 1.091-1.1 1.091-0.608 0-1.1-0.493-1.1-1.1s0.493-1.1 1.1-1.1c0.001 0 0.002 0 0.003 0h-0c0.607 0.004 1.097 0.496 1.097 1.104 0 0.002 0 0.005-0 0.007v-0zM36.505 11.35c-0.006 0.603-0.496 1.091-1.1 1.091-0.608 0-1.1-0.493-1.1-1.1s0.493-1.1 1.1-1.1v0c0.609 0.004 1.1 0.498 1.1 1.107 0 0.001 0 0.002 0 0.004v-0zM2.536 29.441v-6.828h9.569c0.385 0.519 0.995 0.853 1.684 0.855h0c1.142-0.046 2.051-0.984 2.051-2.133s-0.908-2.087-2.046-2.133l-0.004-0c-0.689 0.002-1.299 0.336-1.68 0.85l-0.004 0.006h-9.569v-17.498h21.744v7.511h-8.807c-0.385-0.519-0.995-0.852-1.683-0.855h-0c-1.142 0.046-2.051 0.984-2.051 2.133s0.908 2.087 2.046 2.133l0.004 0c0.688-0.002 1.298-0.335 1.68-0.846l0.004-0.006h8.807v16.812h-21.744zM12.692 21.333c0.006-0.603 0.496-1.091 1.1-1.091 0.608 0 1.1 0.493 1.1 1.1s-0.493 1.1-1.1 1.1c-0.001 0-0.002 0-0.003 0h0c-0.607-0.004-1.097-0.497-1.097-1.104 0-0.002 0-0.005 0-0.007v0zM14.89 11.35c-0.006 0.603-0.496 1.091-1.1 1.091-0.608 0-1.1-0.493-1.1-1.1s0.493-1.1 1.1-1.1v0c0.609 0.004 1.1 0.498 1.1 1.107 0 0.001 0 0.002 0 0.004v-0zM39.213 21.333c0.006-0.603 0.496-1.091 1.1-1.091 0.608 0 1.1 0.493 1.1 1.1s-0.493 1.1-1.1 1.1c-0.001 0-0.002 0-0.003 0h0c-0.607-0.004-1.097-0.497-1.097-1.104 0-0.002 0-0.005 0-0.007v0zM53.466 29.441h-11.886v-6.411c0.516-0.39 0.845-1.002 0.845-1.691 0-1.168-0.947-2.115-2.115-2.115s-2.115 0.947-2.115 2.115c0 0.689 0.33 1.301 0.84 1.687l0.005 0.004v6.411h-12.225v-26.882h7.325v7.093c-0.517 0.39-0.847 1.003-0.847 1.693 0 1.168 0.947 2.115 2.115 2.115s2.115-0.947 2.115-2.115c0-0.69-0.33-1.303-0.842-1.689l-0.005-0.004v-7.093h7.272v7.093c-0.516 0.39-0.845 1.002-0.845 1.691 0 1.168 0.947 2.115 2.115 2.115s2.115-0.947 2.115-2.115c0-0.689-0.33-1.301-0.84-1.687l-0.005-0.004v-7.093h6.981v26.882z"></path>
<path fill="#e04e4f" style="fill: var(--color1, #e04e4f)" d="M71.097 20.574l1.618-2.267c1.12 1.165 2.691 1.889 4.432 1.889 0.007 0 0.014 0 0.021-0h-0.001c1.637 0 2.436-0.756 2.436-1.555 0-2.479-8.065-0.776-8.065-6.049 0-2.32 2.015-4.263 5.303-4.263 2.227 0 4.074 0.663 5.459 1.952l-1.657 2.184c-1.059-0.949-2.465-1.528-4.007-1.528-0.024 0-0.047 0-0.070 0l0.004-0c-1.283 0-1.989 0.567-1.989 1.409 0 2.227 8.041 0.736 8.041 5.966 0 2.562-1.826 4.495-5.608 4.495-2.682-0.010-4.614-0.912-5.917-2.234z"></path>
<path fill="#e04e4f" style="fill: var(--color1, #e04e4f)" d="M83.928 17.465c0-3.109 2.247-5.303 5.376-5.303 2.078 0 3.338 0.902 4.011 1.826l-1.744 1.637c-0.448-0.663-1.196-1.092-2.045-1.092-0.034 0-0.068 0.001-0.102 0.002l0.005-0c-1.618 0-2.751 1.177-2.751 2.94s1.134 2.96 2.751 2.96c0.013 0 0.029 0 0.045 0 0.864 0 1.627-0.428 2.091-1.083l0.005-0.008 1.744 1.618c-0.663 0.945-1.932 1.85-4.011 1.85-3.122-0.013-5.376-2.218-5.376-5.347z"></path>
<path fill="#e04e4f" style="fill: var(--color1, #e04e4f)" d="M101.098 22.54v-1.044c-0.693 0.819-1.889 1.303-3.212 1.303-1.618 0-3.527-1.091-3.527-3.361 0-2.373 1.913-3.275 3.527-3.275 1.342 0 2.542 0.441 3.212 1.24v-1.366c0-1.028-0.882-1.7-2.227-1.7-1.151 0.001-2.194 0.457-2.961 1.198l0.001-0.001-0.994-1.787c1.155-0.992 2.668-1.595 4.322-1.595 0.039 0 0.077 0 0.115 0.001l-0.006-0c2.32 0 4.432 0.925 4.432 3.842v6.546h-2.652zM101.098 20.104v-1.26c-0.441-0.587-1.283-0.882-2.141-0.882-1.051 0-1.913 0.547-1.913 1.535s0.862 1.492 1.913 1.492c0.868 0.003 1.71-0.288 2.141-0.878z"></path>
<path fill="#e04e4f" style="fill: var(--color1, #e04e4f)" d="M113.246 22.54v-6.126c0-1.405-0.736-1.889-1.869-1.889-0.952 0.007-1.793 0.474-2.315 1.188l-0.006 0.008v6.818h-2.652v-10.136h2.652v1.326c0.855-0.968 2.098-1.575 3.484-1.575 0.023 0 0.047 0 0.070 0.001l-0.004-0c2.227 0 3.298 1.26 3.298 3.235v7.15h-2.652z"></path>
<path fill="#e04e4f" style="fill: var(--color1, #e04e4f)" d="M125.511 22.54v-1.293c-0.725 0.947-1.856 1.553-3.129 1.555h-0c-2.562 0-4.495-1.932-4.495-5.303 0-3.315 1.913-5.333 4.495-5.333 0.003 0 0.006 0 0.009 0 1.27 0 2.399 0.606 3.113 1.545l0.007 0.010v-5.178h2.688v13.998h-2.688zM125.511 19.265v-3.583c-0.536-0.704-1.374-1.153-2.317-1.153-0.001 0-0.002 0-0.004 0h0c-1.511 0-2.562 1.197-2.562 2.96s1.051 2.94 2.562 2.94c0 0 0.001 0 0.001 0 0.945 0 1.784-0.451 2.314-1.15l0.005-0.007z"></path>
<path fill="#e04e4f" style="fill: var(--color1, #e04e4f)" d="M130.572 9.715c0-0.881 0.714-1.594 1.594-1.594s1.594 0.714 1.594 1.594c0 0.881-0.714 1.594-1.594 1.594v0c-0.878-0.007-1.587-0.717-1.594-1.594v-0.001zM130.847 22.54v-10.136h2.652v10.136h-2.652z"></path>
<path fill="#e04e4f" style="fill: var(--color1, #e04e4f)" d="M145.064 22.54l-2.141-6.908-2.141 6.908h-2.857l-3.086-10.143h2.771l1.889 6.828 2.227-6.825h2.373l2.224 6.825 1.889-6.825h2.771l-3.086 10.14h-2.834z"></path>
<path fill="#e04e4f" style="fill: var(--color1, #e04e4f)" d="M151.66 17.465c0-2.94 2.165-5.303 5.25-5.303 3.023 0 5.081 2.267 5.081 5.585v0.587h-7.528c0.169 1.279 1.197 2.353 2.92 2.353 1.034-0.011 1.979-0.385 2.715-1l-0.007 0.006 1.177 1.724c-0.994 0.925-2.605 1.405-4.18 1.405-3.099-0.023-5.429-2.102-5.429-5.357zM156.911 14.273c-1.657 0-2.373 1.24-2.499 2.247h4.999c-0.054-1.255-1.085-2.252-2.348-2.252-0.053 0-0.106 0.002-0.158 0.005l0.007-0z"></path>
<path fill="#e04e4f" style="fill: var(--color1, #e04e4f)" d="M163.881 22.54v-13.998h2.652v5.164c0.721-0.948 1.85-1.555 3.12-1.555 0.003 0 0.006 0 0.010 0h-0c2.582 0 4.495 2.015 4.495 5.333 0 3.381-1.932 5.303-4.495 5.303-1.273-0.002-2.404-0.607-3.122-1.545l-0.007-0.009v1.306h-2.652zM168.854 20.418c1.555 0 2.582-1.177 2.582-2.94s-1.028-2.96-2.582-2.96c-0.935 0.021-1.76 0.475-2.285 1.169l-0.005 0.007v3.596c0.538 0.676 1.353 1.112 2.27 1.134l0.004 0z"></path>
</symbol>
</defs>
</svg>
